<mxfile host="65bd71144e">
    <diagram id="zUmLFHOGWY3YtJM519iL" name="Page-1">
        <mxGraphModel dx="1258" dy="595" grid="1" gridSize="10" guides="1" tooltips="1" connect="1" arrows="1" fold="1" page="1" pageScale="1" pageWidth="850" pageHeight="1100" math="0" shadow="0">
            <root>
                <mxCell id="0"/>
                <mxCell id="1" parent="0"/>
                <mxCell id="10" value="" style="edgeStyle=none;html=1;exitX=0.5;exitY=0.5;exitDx=0;exitDy=20;exitPerimeter=0;" parent="1" source="26" target="9" edge="1">
                    <mxGeometry relative="1" as="geometry">
                        <mxPoint x="110" y="150" as="sourcePoint"/>
                    </mxGeometry>
                </mxCell>
                <mxCell id="11" value="" style="edgeStyle=none;html=1;entryX=1.027;entryY=0.4;entryDx=0;entryDy=0;entryPerimeter=0;" parent="1" source="5" target="9" edge="1">
                    <mxGeometry relative="1" as="geometry"/>
                </mxCell>
                <mxCell id="13" value="Individual" style="edgeStyle=none;html=1;" parent="1" source="5" target="12" edge="1">
                    <mxGeometry relative="1" as="geometry"/>
                </mxCell>
                <mxCell id="15" value="Business" style="edgeStyle=none;html=1;entryX=0.5;entryY=0;entryDx=0;entryDy=0;" parent="1" source="5" target="17" edge="1">
                    <mxGeometry relative="1" as="geometry"/>
                </mxCell>
                <mxCell id="5" value="Individual or Business" style="rhombus;whiteSpace=wrap;html=1;fillColor=#f0a30a;strokeColor=#BD7000;strokeWidth=2;fontColor=#000000;" parent="1" vertex="1">
                    <mxGeometry x="230" y="210" width="90" height="90" as="geometry"/>
                </mxCell>
                <mxCell id="9" value="Signup" style="shape=document;whiteSpace=wrap;html=1;boundedLbl=1;fillColor=#1ba1e2;strokeColor=#006EAF;fontColor=#ffffff;strokeWidth=2;" parent="1" vertex="1">
                    <mxGeometry x="50" y="220" width="120" height="80" as="geometry"/>
                </mxCell>
                <mxCell id="12" value="Signup &lt;br&gt;Individual" style="shape=document;whiteSpace=wrap;html=1;boundedLbl=1;fillColor=#1ba1e2;strokeColor=#006EAF;fontColor=#ffffff;strokeWidth=2;" parent="1" vertex="1">
                    <mxGeometry x="400" y="215" width="120" height="80" as="geometry"/>
                </mxCell>
                <mxCell id="14" value="Register&lt;br&gt;Business" style="shape=document;whiteSpace=wrap;html=1;boundedLbl=1;fillColor=#1ba1e2;strokeColor=#006EAF;strokeWidth=2;fontColor=#ffffff;" parent="1" vertex="1">
                    <mxGeometry x="215" y="460" width="120" height="80" as="geometry"/>
                </mxCell>
                <mxCell id="18" value="" style="edgeStyle=none;html=1;" parent="1" source="17" target="14" edge="1">
                    <mxGeometry relative="1" as="geometry"/>
                </mxCell>
                <mxCell id="17" value="Signup &lt;br&gt;Individual" style="shape=document;whiteSpace=wrap;html=1;boundedLbl=1;fillColor=#1ba1e2;strokeColor=#006EAF;fontColor=#ffffff;strokeWidth=2;" parent="1" vertex="1">
                    <mxGeometry x="215" y="350" width="120" height="80" as="geometry"/>
                </mxCell>
                <mxCell id="21" value="&lt;h1 style=&quot;line-height: 90%;&quot;&gt;&lt;font style=&quot;font-size: 18px;&quot;&gt;Sign up individual flow&lt;/font&gt;&lt;/h1&gt;" style="text;html=1;strokeColor=none;fillColor=none;spacing=5;spacingTop=-20;whiteSpace=wrap;overflow=hidden;rounded=0;" parent="1" vertex="1">
                    <mxGeometry x="10" y="580" width="205" height="40" as="geometry"/>
                </mxCell>
                <mxCell id="24" value="" style="edgeStyle=none;html=1;fontSize=18;entryX=0;entryY=0.5;entryDx=0;entryDy=0;entryPerimeter=0;" parent="1" source="22" target="28" edge="1">
                    <mxGeometry relative="1" as="geometry">
                        <mxPoint x="190" y="670" as="targetPoint"/>
                    </mxGeometry>
                </mxCell>
                <mxCell id="31" value="" style="edgeStyle=none;html=1;fontSize=18;fontColor=#FFFFFF;" parent="1" source="22" target="30" edge="1">
                    <mxGeometry relative="1" as="geometry"/>
                </mxCell>
                <mxCell id="22" value="Signup &lt;br&gt;Individual" style="shape=document;whiteSpace=wrap;html=1;boundedLbl=1;fillColor=#1ba1e2;strokeColor=#006EAF;fontColor=#ffffff;strokeWidth=2;" parent="1" vertex="1">
                    <mxGeometry x="20" y="630" width="120" height="80" as="geometry"/>
                </mxCell>
                <mxCell id="25" value="Landing / Redirect Url" style="shape=document;whiteSpace=wrap;html=1;boundedLbl=1;fillColor=#1ba1e2;strokeColor=#006EAF;fontColor=#ffffff;strokeWidth=2;" parent="1" vertex="1">
                    <mxGeometry x="420" y="630" width="120" height="80" as="geometry"/>
                </mxCell>
                <mxCell id="26" value="&lt;h1 style=&quot;color: rgb(240, 240, 240); text-align: left; line-height: 21.6px;&quot;&gt;&lt;a style=&quot;font-size: 15px;&quot; href=&quot;https://www.smashingmagazine.com/2012/01/stop-designing-pages-start-designing-flows/#typical-user-flows&quot;&gt;Source actions&lt;/a&gt;&lt;/h1&gt;" style="html=1;dashed=0;whitespace=wrap;shape=mxgraph.dfd.start;fontSize=18;fillColor=#1ba1e2;fontColor=#ffffff;strokeColor=#006EAF;whiteSpace=wrap;" parent="1" vertex="1">
                    <mxGeometry x="47.5" y="100" width="125" height="40" as="geometry"/>
                </mxCell>
                <mxCell id="29" value="" style="edgeStyle=none;html=1;fontSize=18;" parent="1" source="28" target="25" edge="1">
                    <mxGeometry relative="1" as="geometry"/>
                </mxCell>
                <mxCell id="28" value="&lt;span style=&quot;&quot;&gt;Continue with Google&lt;/span&gt;" style="strokeWidth=2;html=1;shape=mxgraph.flowchart.start_1;whiteSpace=wrap;fillColor=#1ba1e2;fontColor=#FFFFFF;strokeColor=#006EAF;" parent="1" vertex="1">
                    <mxGeometry x="236.25" y="640" width="100" height="60" as="geometry"/>
                </mxCell>
                <mxCell id="34" value="Send verify&lt;br&gt;e-mail link" style="edgeStyle=none;html=1;fontSize=11;fontColor=#FFFFFF;" parent="1" source="30" target="33" edge="1">
                    <mxGeometry relative="1" as="geometry"/>
                </mxCell>
                <mxCell id="30" value="&lt;span style=&quot;&quot;&gt;Enter e-mail&lt;/span&gt;" style="strokeWidth=2;html=1;shape=mxgraph.flowchart.start_1;whiteSpace=wrap;fillColor=#1ba1e2;fontColor=#FFFFFF;strokeColor=#006EAF;" parent="1" vertex="1">
                    <mxGeometry x="30" y="750" width="100" height="60" as="geometry"/>
                </mxCell>
                <mxCell id="38" value="" style="edgeStyle=none;html=1;fontSize=18;fontColor=#FFFFFF;entryX=0;entryY=0.5;entryDx=0;entryDy=0;" parent="1" source="33" target="39" edge="1">
                    <mxGeometry relative="1" as="geometry">
                        <mxPoint x="400" y="780" as="targetPoint"/>
                    </mxGeometry>
                </mxCell>
                <mxCell id="33" value="&lt;span style=&quot;&quot;&gt;Click verify e-mail link&lt;br&gt;(Inbox)&lt;br&gt;&lt;/span&gt;" style="strokeWidth=2;html=1;shape=mxgraph.flowchart.start_1;whiteSpace=wrap;fillColor=#1ba1e2;fontColor=#FFFFFF;strokeColor=#006EAF;" parent="1" vertex="1">
                    <mxGeometry x="220" y="730" width="132.5" height="80" as="geometry"/>
                </mxCell>
                <mxCell id="40" value="" style="edgeStyle=none;html=1;fontSize=18;fontColor=#FFFFFF;" parent="1" source="39" target="25" edge="1">
                    <mxGeometry relative="1" as="geometry"/>
                </mxCell>
                <mxCell id="39" value="SetPassword" style="shape=document;whiteSpace=wrap;html=1;boundedLbl=1;fillColor=#1ba1e2;strokeColor=#006EAF;fontColor=#ffffff;strokeWidth=2;" parent="1" vertex="1">
                    <mxGeometry x="420" y="730" width="120" height="80" as="geometry"/>
                </mxCell>
                <mxCell id="44" value="Business" style="edgeStyle=none;html=1;fontSize=11;fontColor=#FFFFFF;" parent="1" source="42" target="14" edge="1">
                    <mxGeometry relative="1" as="geometry"/>
                </mxCell>
                <mxCell id="42" value="Upgrade account" style="shape=document;whiteSpace=wrap;html=1;boundedLbl=1;fillColor=#1ba1e2;strokeColor=#006EAF;fontColor=#ffffff;strokeWidth=2;" parent="1" vertex="1">
                    <mxGeometry x="15" y="460" width="120" height="80" as="geometry"/>
                </mxCell>
                <mxCell id="45" value="&lt;h1 style=&quot;line-height: 90%;&quot;&gt;&lt;font style=&quot;font-size: 18px;&quot;&gt;Register business flow&lt;/font&gt;&lt;/h1&gt;" style="text;html=1;strokeColor=none;fillColor=none;spacing=5;spacingTop=-20;whiteSpace=wrap;overflow=hidden;rounded=0;" vertex="1" parent="1">
                    <mxGeometry x="7.5" y="840" width="205" height="40" as="geometry"/>
                </mxCell>
                <mxCell id="48" value="" style="edgeStyle=none;html=1;" edge="1" parent="1" source="46" target="47">
                    <mxGeometry relative="1" as="geometry"/>
                </mxCell>
                <mxCell id="46" value="Register&lt;br&gt;Business" style="shape=document;whiteSpace=wrap;html=1;boundedLbl=1;fillColor=#1ba1e2;strokeColor=#006EAF;strokeWidth=2;fontColor=#ffffff;" vertex="1" parent="1">
                    <mxGeometry x="20" y="900" width="120" height="80" as="geometry"/>
                </mxCell>
                <mxCell id="50" value="" style="edgeStyle=none;html=1;" edge="1" parent="1" source="47" target="49">
                    <mxGeometry relative="1" as="geometry"/>
                </mxCell>
                <mxCell id="47" value="Enter address" style="ellipse;whiteSpace=wrap;html=1;fillColor=#1ba1e2;strokeColor=#006EAF;fontColor=#ffffff;strokeWidth=2;" vertex="1" parent="1">
                    <mxGeometry x="200" y="900" width="100" height="80" as="geometry"/>
                </mxCell>
                <mxCell id="54" value="" style="edgeStyle=none;html=1;entryX=0;entryY=0.5;entryDx=0;entryDy=0;" edge="1" parent="1" source="49" target="55">
                    <mxGeometry relative="1" as="geometry">
                        <mxPoint x="570" y="940" as="targetPoint"/>
                    </mxGeometry>
                </mxCell>
                <mxCell id="49" value="Search company on address&lt;br&gt;(Google, CompaniesHouse)" style="ellipse;whiteSpace=wrap;html=1;fillColor=#008a00;strokeColor=#005700;fontColor=#ffffff;strokeWidth=2;" vertex="1" parent="1">
                    <mxGeometry x="360" y="885" width="130" height="110" as="geometry"/>
                </mxCell>
                <mxCell id="57" value="Y" style="edgeStyle=none;html=1;" edge="1" parent="1" source="55" target="56">
                    <mxGeometry relative="1" as="geometry"/>
                </mxCell>
                <mxCell id="59" value="N" style="edgeStyle=none;html=1;entryX=0.5;entryY=0;entryDx=0;entryDy=0;exitX=0.5;exitY=1;exitDx=0;exitDy=0;" edge="1" parent="1" source="55" target="60">
                    <mxGeometry relative="1" as="geometry">
                        <mxPoint x="605" y="1065" as="targetPoint"/>
                    </mxGeometry>
                </mxCell>
                <mxCell id="55" value="Found" style="rhombus;whiteSpace=wrap;html=1;fillColor=#f0a30a;strokeColor=#BD7000;strokeWidth=2;fontColor=#000000;" vertex="1" parent="1">
                    <mxGeometry x="560" y="895" width="90" height="90" as="geometry"/>
                </mxCell>
                <mxCell id="62" value="Not valid" style="edgeStyle=none;html=1;entryX=1;entryY=0.5;entryDx=0;entryDy=0;" edge="1" parent="1" source="56" target="60">
                    <mxGeometry x="0.0006" relative="1" as="geometry">
                        <mxPoint x="760" y="1060" as="targetPoint"/>
                        <mxPoint as="offset"/>
                    </mxGeometry>
                </mxCell>
                <mxCell id="56" value="Confirm details" style="ellipse;whiteSpace=wrap;html=1;fillColor=#1ba1e2;strokeColor=#006EAF;fontColor=#ffffff;strokeWidth=2;" vertex="1" parent="1">
                    <mxGeometry x="710" y="900" width="100" height="80" as="geometry"/>
                </mxCell>
                <mxCell id="64" value="" style="edgeStyle=none;html=1;" edge="1" parent="1" source="60" target="63">
                    <mxGeometry relative="1" as="geometry"/>
                </mxCell>
                <mxCell id="60" value="Enter details" style="ellipse;whiteSpace=wrap;html=1;fillColor=#1ba1e2;strokeColor=#006EAF;fontColor=#ffffff;strokeWidth=2;" vertex="1" parent="1">
                    <mxGeometry x="555" y="1030" width="100" height="80" as="geometry"/>
                </mxCell>
                <mxCell id="63" value="Populate activities" style="ellipse;whiteSpace=wrap;html=1;fillColor=#1ba1e2;strokeColor=#006EAF;fontColor=#ffffff;strokeWidth=2;" vertex="1" parent="1">
                    <mxGeometry x="375" y="1030" width="100" height="80" as="geometry"/>
                </mxCell>
                <mxCell id="65" value="Valid" style="edgeStyle=none;html=1;entryX=1;entryY=0.5;entryDx=0;entryDy=0;exitX=0.5;exitY=1;exitDx=0;exitDy=0;" edge="1" parent="1" source="56" target="63">
                    <mxGeometry x="0.0006" relative="1" as="geometry">
                        <mxPoint x="742.8642307101227" y="983.5966667398479" as="sourcePoint"/>
                        <mxPoint x="665" y="1080" as="targetPoint"/>
                        <mxPoint as="offset"/>
                    </mxGeometry>
                </mxCell>
            </root>
        </mxGraphModel>
    </diagram>
</mxfile>